<svg xmlns="http://www.w3.org/2000/svg" xmlns:xlink="http://www.w3.org/1999/xlink" width="80.821" height="183.544" viewBox="0 0 80.821 183.544">
  <defs>
    <linearGradient id="linear-gradient" y1="0.5" x2="1" y2="0.5" gradientUnits="objectBoundingBox">
      <stop offset="0" stop-color="#4d4d4d"/>
      <stop offset="1" stop-color="#0f0f0f"/>
    </linearGradient>
  </defs>
  <g id="Logo_-_Home" data-name="Logo - Home" transform="translate(-919.717 -72.261)">
    <ellipse id="Ellipse_3" data-name="Ellipse 3" cx="5.022" cy="5.022" rx="5.022" ry="5.022" transform="translate(943.33 84.938) rotate(90)" fill="#f68181"/>
    <ellipse id="Ellipse_8" data-name="Ellipse 8" cx="5.022" cy="5.022" rx="5.022" ry="5.022" transform="translate(987.8 245.76) rotate(90)" fill="#202020"/>
    <ellipse id="Ellipse_4" data-name="Ellipse 4" cx="5.022" cy="5.022" rx="5.022" ry="5.022" transform="translate(950.949 115.481) rotate(90)" fill="#81def6"/>
    <ellipse id="Ellipse_5" data-name="Ellipse 5" cx="5.022" cy="5.022" rx="5.022" ry="5.022" transform="translate(967.436 93.733) rotate(90)" fill="#81f6b8"/>
    <ellipse id="Ellipse_10" data-name="Ellipse 10" cx="5.022" cy="5.022" rx="5.022" ry="5.022" transform="translate(946.172 220.754) rotate(90)" fill="#202020"/>
    <ellipse id="Ellipse_6" data-name="Ellipse 6" cx="5.022" cy="5.022" rx="5.022" ry="5.022" transform="translate(961.403 72.261) rotate(90)" fill="#f6d381"/>
    <ellipse id="Ellipse_9" data-name="Ellipse 9" cx="5.022" cy="5.022" rx="5.022" ry="5.022" transform="translate(980.873 215.769) rotate(90)" fill="#202020"/>
    <ellipse id="Ellipse_7" data-name="Ellipse 7" cx="5.022" cy="5.022" rx="5.022" ry="5.022" transform="translate(992.718 100.935) rotate(90)" fill="#8189f6"/>
    <ellipse id="Ellipse_11" data-name="Ellipse 11" cx="5.022" cy="5.022" rx="5.022" ry="5.022" transform="translate(962.102 234.608) rotate(90)" fill="#d1d1d1"/>
    <g id="Union_1" data-name="Union 1" transform="translate(999.255 120.622) rotate(90)" fill="url(#linear-gradient)">
      <path d="M 97.15938568115234 78.89630126953125 L 96.84613800048828 78.64450836181641 L 48.82228851318359 40.04351043701172 L 0.7984384894371033 78.64450836181641 L 0.4851885139942169 78.89630126953125 L 0.1719385087490082 78.64450836181641 L -0.3132489919662476 78.25452423095703 L -0.4999989867210388 78.10440826416016 L -0.4999989867210388 77.86481475830078 L -0.4999989867210388 0.3899994492530823 L -0.4999989867210388 0.1503994464874268 L -0.3132489919662476 0.0002869445888791233 L 0.1719385087490082 -0.3897130489349365 L 0.4851885139942169 -0.6415005326271057 L 0.7984384894371033 -0.3897130489349365 L 48.82228851318359 38.21129989624023 L 96.84613800048828 -0.3897130489349365 L 97.15938568115234 -0.6415005326271057 L 97.47264099121094 -0.3897130489349365 L 97.95782470703125 0.0002869445888791233 L 98.14457702636719 0.1503994464874268 L 98.14457702636719 0.3899994492530823 L 98.14457702636719 77.86481475830078 L 98.14457702636719 78.10440826416016 L 97.95782470703125 78.25452423095703 L 97.47264099121094 78.64450836181641 L 97.15938568115234 78.89630126953125 Z" stroke="none"/>
      <path d="M 97.15937805175781 78.25479888916016 L 97.64458465576172 77.86481475830078 L 97.64458465576172 0.3899994492530823 L 97.15937805175781 -5.55419944703317e-07 L 48.82228851318359 38.85279846191406 L 0.4851951897144318 -5.55419944703317e-07 L -4.820149570150534e-06 0.3899994492530823 L -4.820149570150534e-06 77.86481475830078 L 0.4851951897144318 78.25479888916016 L 48.82228851318359 39.40201187133789 L 97.15937805175781 78.25479888916016 M 97.15937042236328 79.53778839111328 L 96.53289031982422 79.03422546386719 L 48.82228851318359 40.68500900268555 L 1.111688494682312 79.03422546386719 L 0.4852085113525391 79.53778839111328 L -0.1412848234176636 79.03424072265625 L -0.6264848113059998 78.64425659179688 L -1.000004768371582 78.34402465820313 L -1.000004768371582 77.86481475830078 L -1.000004768371582 0.3899994492530823 L -1.000004768371582 -0.08920055627822876 L -0.6264981627464294 -0.3894272148609161 L -0.1412981599569321 -0.7794272303581238 L 0.4851951897144318 -1.283000588417053 L 1.111688494682312 -0.7794272303581238 L 48.82228851318359 37.56980514526367 L 96.53289031982422 -0.7794272303581238 L 97.15937805175781 -1.283000588417053 L 97.78587341308594 -0.7794272303581238 L 98.27107238769531 -0.3894272148609161 L 98.64458465576172 -0.08920055627822876 L 98.64458465576172 0.3899994492530823 L 98.64458465576172 77.86481475830078 L 98.64458465576172 78.34402465820313 L 98.27106475830078 78.64425659179688 L 97.78585815429688 79.03424072265625 L 97.15937042236328 79.53778839111328 Z" stroke="none" fill="#2c2c2c"/>
    </g>
  </g>
</svg>
